PathFileType	4	(X/Y/Z)	C:/Users/beibeiliu/ov580/test_trc/User2\sequence.2_training_dense_right.trc
DataRate	CameraRate	NumFrames	NumMarkers	Units	OrigDataRate	OrigDataStartFrame	OrigNumFrames
120	120	12	19	mm	120	154	307
Frame#	Time	ThumbCMC			ThumbMCP			ThumbIP			ThumbTip			IndexMCP			IndexPIP			IndexTip			MiddleMCP			MiddlePIP			MiddleTip			RingMCP			RingPIP			RingTip			PinkyMCP			PinkyPIP			PinkyTip			BackHand1			BackHand2			BackHand3	
		X0	Y0	Z0	X1	Y1	Z1	X2	Y2	Z2	X3	Y3	Z3	X4	Y4	Z4	X5	Y5	Z5	X6	Y6	Z6	X7	Y7	Z7	X8	Y8	Z8	X9	Y9	Z9	X10	Y10	Z10	X11	Y11	Z11	X12	Y12	Z12	X13	Y13	Z13	X14	Y14	Z14	X15	Y15	Z15	X16	Y16	Z16	X17	Y17	Z17	X18	Y18	Z18	
153	1.275	69.4046	9.32544	63.265	53.7987	-6.78918	29.5935	47.7469	-12.2826	-9.07782	60.5181	-12.8799	-33.7961	53.5433	53.2154	-8.95594	48.8168	34.1734	-35.5114	53.8006	-0.148327	-27.5124	74.3676	53.1673	-19.3955	66.8843	21.7285	-44.0311	69.2115	-8.76838	-18.5332	93.2499	44.6602	-29.5745	84.845	19.6467	-46.7278	82.8908	-11.6693	-31.2929	114.109	33.7847	-22.6843	100.644	6.05686	-37.8034	96.5168	-15.6459	-14.3954	121.095	50.2073	30.2744	131.45	43.4168	60.6133	93.7398	46.1312	60.4243	
154	1.28333	73.6063	9.98555	56.1073	60.3861	-7.99995	23.1583	59.1579	-17.9214	-12.3221	73.248	-18.5814	-38.0766	67.8104	47.5049	-21.8346	61.9242	25.5891	-45.3168	66.5483	-6.88328	-32.4064	88.0469	46.2597	-30.3448	82.1398	17.2776	-51.2558	81.3953	-14.8249	-23.425	109.226	37.696	-32.2309	103.67	11.9408	-51.4068	93.4707	-18.0424	-32.8475	128.815	26.709	-24.4397	116.273	0.873955	-40.1342	109.501	-23.0254	-19.5173	125.583	45.8015	29.2856	137.186	41.1276	59.8705	94.6962	48.3693	53.5776	
155	1.29167	77.9583	10.3442	52.2225	65.7536	-10.145	19.4295	66.1594	-22.6341	-16.4378	84.6029	-24.5898	-36.8734	79.9502	42.7663	-27.8202	78.2838	18.102	-50.3147	76.4293	-11.005	-39.3652	97.3372	40.3692	-37.2922	97.0832	6.51594	-55.588	93.279	-21.5667	-26.2791	123.743	29.5825	-34.355	116.035	1.2142	-52.5088	106.257	-26.5376	-29.5482	140.544	21.6165	-24.0545	128.386	-9.06725	-39.2381	117.952	-29.111	-15.8032	134.997	45.969	23.014	140.348	40.5397	58.267	101.498	46.0789	48.3302	
156	1.3	77.856	10.0496	47.3912	71.2133	-13.2545	20.5007	74.4626	-27.9797	-13.4849	89.1317	-33.3882	-36.2681	86.0575	37.0661	-32.2168	86.899	10.5466	-54.6577	86.3518	-17.8362	-39.4593	110.046	33.0966	-39.781	104.327	3.75971	-57.4574	104.637	-27.6997	-25.9983	127.837	23.0207	-39.3012	122.278	-7.65562	-50.0565	113.626	-31.5218	-26.1232	149.126	15.4463	-23.8022	136.243	-11.787	-37.2106	125.672	-35.0708	-13.5442	137.518	43.501	21.5184	139.623	41.2718	58.0128	104.743	48.2534	43.33	
157	1.30833	77.4914	7.60479	48.7545	72.3543	-14.8901	14.8951	76.8598	-31.1832	-17.0135	96.3944	-35.528	-35.7055	91.0252	32.0268	-30.6828	88.5759	6.16844	-54.9	89.5642	-25.2136	-35.264	111.807	27.8099	-42.3876	112.706	-6.71811	-54.996	109.238	-32.5248	-24.3334	136.593	17.8824	-36.0803	129.373	-10.1925	-49.2643	121.973	-36.3983	-23.8709	153.895	12.4138	-22.8882	142.144	-15.7394	-35.921	131.587	-36.7203	-15.1799	139.435	42.6738	26.6137	138.963	44.0899	59.2344	101.711	45.3848	41.766	
158	1.31667	77.5016	7.84609	44.3164	68.6324	-16.7374	19.8938	75.6202	-32.3749	-13.8029	93.105	-37.9809	-37.1514	89.5029	30.6153	-33.4392	86.1262	5.89714	-53.3544	90.9314	-26.1993	-33.1736	112.547	27.9594	-39.1297	110.873	-5.75833	-55.7299	109.381	-33.2089	-24.7477	132.735	17.9042	-36.2253	127.232	-10.6517	-47.535	115.613	-35.5072	-18.8555	153.171	12.3704	-23.4101	139.581	-17.8376	-35.2615	132.953	-38.0756	-13.2704	138.213	42.7686	21.0926	137.303	41.7403	56.0496	100.229	44.6085	40.8977	
159	1.325	73.0524	6.08293	52.5217	67.581	-15.6137	22.7408	68.3551	-31.6058	-7.1379	85.8069	-36.0581	-34.2792	78.4577	30.0469	-29.7093	78.6273	6.88683	-49.0494	80.2454	-25.6968	-28.4893	102.155	29.7262	-35.0142	101.985	-8.25146	-52.6249	101.586	-31.793	-25.7833	121.827	19.6624	-33.6827	117.801	-11.4796	-46.8015	112.673	-33.5535	-19.9033	142.111	14.9751	-21.2565	134.313	-16.7008	-36.6206	122.372	-33.2266	-12.2592	134.977	41.362	26.38	138.961	40.5438	56.2728	101.331	44.8645	42.4444	
160	1.33333	71.4868	4.78788	53.7634	55.6061	-19.8288	29.3948	53.5291	-34.1314	-3.90269	70.4771	-36.1464	-31.7007	63.9809	30.759	-22.2154	63.8798	7.01243	-43.2459	70.3649	-26.1193	-21.8665	84.1511	29.0874	-34.232	81.841	-5.10977	-49.6056	88.8231	-30.4306	-24.4239	106.554	20.7061	-35.9395	101.131	-8.16334	-45.436	100.773	-31.1719	-15.9401	129.8	15.9197	-24.8413	118.725	-10.6328	-36.7952	115.171	-31.5571	-13.6166	123.945	41.8894	28.595	132.725	40.7768	55.9384	90.6381	41.699	50.0325	
161	1.34167	64.8147	1.7986	63.8483	48.4758	-20.3042	34.9679	43.4403	-32.4486	-0.323646	54.5831	-36.2475	-22.7099	50.5277	31.9129	-13.2015	48.7945	7.55514	-36.4968	56.2162	-24.3807	-15.5358	67.3102	30.2341	-27.8983	68.4153	0.781131	-46.2389	70.8955	-30.1171	-20.8933	92.2029	22.4503	-31.1795	85.6903	-6.77887	-43.2542	87.0058	-28.9867	-17.8124	113.168	16.6588	-24.0916	105.604	-11.5686	-37.0549	103.916	-31.8026	-11.7356	111.178	41.7474	27.4283	125.67	39.7305	61.6174	84.4662	41.4672	56.1999	
162	1.35	60.2921	2.21438	67.3969	40.9496	-20.7413	42.9206	34.2991	-32.2425	10.785	43.0962	-35.857	-15.6717	39.7953	31.297	-4.02462	33.3768	8.91691	-28.5493	38.4989	-22.0626	-12.914	55.0976	30.7368	-22.3189	47.8164	0.427484	-39.6514	58.2566	-30.3184	-11.7194	74.6542	23.2375	-27.4734	66.9017	-3.83799	-39.918	73.6205	-27.3859	-9.92051	103.041	18.5911	-22.6266	87.1875	-10.4326	-34.5823	90.1501	-29.77	-7.49085	106.385	40.6283	25.1966	122.385	39.9318	57.6576	76.8073	39.3313	56.6909	
163	1.35833	56.7951	-0.0114146	74.8983	37.4354	-19.6031	45.9969	29.2511	-31.5171	13.5963	34.6419	-35.2577	-12.2368	24.8785	30.4433	-0.379298	19.8767	8.35638	-20.6001	32.6302	-24.5065	-5.33809	43.4811	32.2042	-14.4947	38.9467	0.795539	-35.2478	47.1471	-27.668	-10.2886	65.693	24.6375	-25.1088	58.1859	-4.33578	-37.5632	65.3573	-27.3042	-12.0031	89.261	18.0115	-21.2323	74.1806	-8.91537	-31.8322	78.6567	-31.5266	-5.74501	98.4092	40.7784	29.7278	116.212	40.021	56.1613	76.6203	37.734	62.6265	
164	1.36667	57.1762	0.2119	74.0641	35.5713	-20.8257	49.0777	24.3287	-30.9456	14.4498	31.1351	-34.4271	-8.50347	25.5353	33.0679	3.39519	12.2662	7.23903	-17.118	22.9512	-21.3264	-5.45434	37.4686	31.7851	-13.1783	30.0105	0.931862	-29.8307	45.4381	-27.7139	-4.81091	59.1099	24.9499	-22.9244	51.2917	-3.12662	-34.355	60.0961	-27.4297	-7.55476	84.4075	19.4891	-19.7587	71.5202	-9.09869	-33.8071	74.5096	-32.0116	-5.0063	97.2305	41.2492	29.2362	117.254	37.4288	58.9454	75.1527	37.2675	64.1558	
